<svg id="Layer_1" data-name="Layer 1" xmlns="http://www.w3.org/2000/svg" viewBox="0 0 122.91 122.8"><defs><style>.cls-1{fill:#009fe3;}.cls-2{fill:#11a3e4;}.cls-3{fill:#0fa3e4;}.cls-4{fill:#09a1e4;}.cls-5{fill:#08a0e3;}</style></defs><title>fiuba_logo</title><path class="cls-1" d="M137.69,75.93a61.4,61.4,0,0,1-.09,122.8c-33.73-.06-61.46-27.69-61.48-61.26A61.39,61.39,0,0,1,137.69,75.93Zm27.8,82.24c-1,1.53-1.75,2.83-2.65,4-5,6.53-10.58,7.39-17.27,2.63-5.8-4.13-8.69-9.93-9.46-16.87-.46-4.15.3-8-2.63-12.26-2.17-3.13-4-6.2-7.18-8.32-6.75-4.5-13.52-9-21-14,7.16-2.54,13.54-4.71,19.84-7.07,4.13-1.54,8.1-2.43,11.8,1.23,1.21-6.23-.57-8.2-6-7.15-6.91,1.34-12.92,5.23-19.72,6.91-2.48.62-4.89,1.37-7.41-.11,11-1.63,19.27-10.56,30.71-10.48-.86-5.2-.81-6.89.18-9,2.13-4.45,6.65-6.17,12.91-4.45,2.14.59,3.47.9,3.94-1.71a56.43,56.43,0,0,0-40.65,4.59c-37.11,19.22-41.72,71.3-8.64,96.65,2.78,2.13,4.94,2.39,8,.57,6.53-3.87,9.79-9.7,11.37-16.81,1.54-6.92,1.53-7-5.49-6.17-4.48.5-6.44-1.1-7.37-5.32s-1.15-8.75-6.82-9.73c-1.66-.29-1.24-2.07-.93-3.4,1-4.21,2-8.41,2.93-12.62.25-1.12.17-2.47,1.78-2.54a3.2,3.2,0,0,1,3.12,2c1.92,3.71,2.41,3.84,4.87.28.61-.89,1-1,1.64-.9,3.58.68,8,0,8.67,5.45.21,1.69,1.61,2.88,3.1,3.73,3.52,2,4.84,5,3.48,8.85s-4.51,4.47-8.15,3.75c-.37-.07-.81.23-1.23.37,2.05,5.36,2.93,6,7.92,4.74,3.1-.78,2.38.67,2,2.55-1.63,8.56,1,15.81,7.25,21.71,5.72,5.4,12.28,5,17.4-.94a25,25,0,0,0,2.05-2.82c1.4-2.16,2.51-1.46,3.77.19,2.47,3.26.13,6.06-1.16,9,6.23.49,8.48-.92,10.62-6.35C174.11,170.87,172.22,163.8,165.49,158.17Zm-16-67.53c-.39-.54-.75-1.1-1.17-1.61-2.73-3.23-5.69-3.79-8.62-1.66s-3.51,5.43-1.3,8.8c2.09,3.18,4.6,5.58,9,5a15.13,15.13,0,0,1,6.91.57c8.06,2.68,13.23,8,15,16.39,2,9.17-1.06,16.61-7.81,22.84-2.6,2.39-6.75,3.11-7.76,7.29-.21.87-1.4.5-2.22.47-1.38-.06-3.29-1.23-3.91.8-.57,1.87.73,3.51,2.11,4.75a5.86,5.86,0,0,0,9.75-3,12.18,12.18,0,0,1,4.31-7c10.27-8.61,12.88-19.73,7.06-31.57-1.73-3.52-2.46-6.1.7-9.23,2.38-2.35,2-5.49.18-8.28s-4.42-2.72-7.1-1.85c-1.35.43-1.87,1-2.76-1C159,86,154.49,85.53,149.47,90.64ZM141,122.08c-.06-2.53-.58-5-3-5.85s-3.53,1.27-3.9,3.31-2,1.24-3.06,1.64c-2.14.78-3.8,2.15-1.87,4.36s4.54,2.55,7.33,1.71S140.74,124.82,141,122.08Zm4.36,16.27a3.15,3.15,0,0,0-3.94,1.21,2.27,2.27,0,0,0,.22,2.79c2.19,2.69,4.93,3.9,8.39,2.87,3.29-1,4.22-3.43,4-6.58-.1-1.6-.54-3-2.14-3.62s-2.93.41-3.7,1.77C147.57,138,147.21,139.39,145.39,138.35Zm3.15-8.59c-.38-2.15-.7-4.59-3.11-5.24-2.21-.6-3.27,1.22-3.62,3.14s-1.94,1.25-3.08,1.6c-2.08.64-4.05,1.73-2.27,4.19s4.68,3,7.62,2.14A5.68,5.68,0,0,0,148.54,129.76ZM125.92,110c-1.77-.14-3,.4-2.94,2.71a5.68,5.68,0,0,0,5.78,5.52c2.56.08,3.18-1.32,3-3.42C131.43,111.41,129.47,109.83,125.92,110Z" transform="translate(-76.11 -75.93)"/><path class="cls-2" d="M116.3,127c-3.08-1-6.14-2.11-9.25-3-2.3-.68-2.92-2.4-2.09-4.16.95-2,2.54-.52,3.7.15C111.63,121.66,114.4,123.66,116.3,127Z" transform="translate(-76.11 -75.93)"/><path class="cls-3" d="M164.51,105.56c-2.83-2.76-2.64-5.35-.92-8A3.52,3.52,0,0,1,167.52,96a2.83,2.83,0,0,1,2.39,2.24A2.87,2.87,0,0,1,168,101.9,5.77,5.77,0,0,0,164.51,105.56Z" transform="translate(-76.11 -75.93)"/><path class="cls-4" d="M155.55,99.71c-3.31-2-4.51-4.57-2.78-8a3.14,3.14,0,0,1,4.7-1.27c1.88,1.08,2.37,2.93.76,4.58A12.3,12.3,0,0,0,155.55,99.71Z" transform="translate(-76.11 -75.93)"/><path class="cls-5" d="M144.19,98.2c-3.16-1.1-4.46-3.14-4.3-6.11a3.09,3.09,0,0,1,3.6-3.16c2.19.14,3.61,1.89,2.56,3.7S146.59,97.09,144.19,98.2Z" transform="translate(-76.11 -75.93)"/></svg>