<?xml version="1.0" encoding="UTF-8" standalone="no"?>
<svg
   xmlns:dc="http://purl.org/dc/elements/1.1/"
   xmlns:cc="http://creativecommons.org/ns#"
   xmlns:rdf="http://www.w3.org/1999/02/22-rdf-syntax-ns#"
   xmlns:svg="http://www.w3.org/2000/svg"
   xmlns="http://www.w3.org/2000/svg"
   width="1838.2797"
   height="1263.0188"
   viewBox="0 0 486.37812 334.17372"
   version="1.1"
   id="svg8">
  <defs
     id="defs2" />
  <metadata
     id="metadata5">
    <rdf:RDF>
      <cc:Work
         rdf:about="">
        <dc:format>image/svg+xml</dc:format>
        <dc:type
           rdf:resource="http://purl.org/dc/dcmitype/StillImage" />
        <dc:title></dc:title>
      </cc:Work>
    </rdf:RDF>
  </metadata>
  <g
     id="layer1"
     transform="translate(-38.637571,-87.279517)">
    <path
       style="fill:#ffb380;stroke:#000000;stroke-width:0.264583px;stroke-linecap:butt;stroke-linejoin:miter;stroke-opacity:1"
       d="m 39.037923,260.80402 -0.26727,-20.31248 15.234362,-13.36348 17.639789,-1.60361 4.009043,7.21627 10.423509,10.95805 -5.61266,17.63979 -29.132376,8.01809 z"
       id="Francia" />
    <path
       style="fill:#ffb380;stroke:#000000;stroke-width:0.264583px;stroke-linecap:butt;stroke-linejoin:miter;stroke-opacity:1"
       d="m 71.644804,225.52445 17.105252,-24.5888 38.754084,4.54358 7.48355,35.27957 -16.83799,13.89802 -32.072344,-10.95805 -10.423509,-10.95805 z"
       id="Alemania" />
    <path
       style="fill:#ffb380;stroke:#000000;stroke-width:0.264583px;stroke-linecap:butt;stroke-linejoin:miter;stroke-opacity:1"
       d="m 118.1497,254.65682 -14.16528,13.89802 4.00905,22.71791 21.11429,24.05426 -18.17433,-10e-6 -20.579764,-22.71791 -9.88897,-31.27053 5.61266,-17.63979 z"
       id="Italia" />
    <path
       style="fill:#71c3dc;fill-opacity:1;stroke:#000000;stroke-width:0.264583px;stroke-linecap:butt;stroke-linejoin:miter;stroke-opacity:1"
       d="m 414.90137,397.26613 17.10526,5.87993 -10.69078,17.90706 25.39061,0.26727 23.25242,-21.64883 0.53454,-38.48681 -16.57069,16.57071 -12.56168,-17.10525 -21.64881,12.2944 -12.56168,-7.21628 -5.61266,23.51972 z"
       id="Australia" />
    <path
       style="fill:#71c3dc;fill-opacity:1;stroke:#000000;stroke-width:0.264583px;stroke-linecap:butt;stroke-linejoin:miter;stroke-opacity:1"
       d="m 398.06339,364.92652 -17.90705,-48.10851 -20.57977,17.37252 15.7689,20.04521 z"
       id="Sumatra" />
    <path
       style="fill:#71c3dc;fill-opacity:1;stroke:#000000;stroke-width:0.264583px;stroke-linecap:butt;stroke-linejoin:miter;stroke-opacity:1"
       d="m 422.91946,311.47262 3.20723,26.19241 26.99422,14.96709 8.55263,-37.15046 -17.6398,-16.30344 z"
       id="Borneo" />
    <path
       style="fill:#ffaaaa;stroke:#000000;stroke-width:0.264583px;stroke-linecap:butt;stroke-linejoin:miter;stroke-opacity:1"
       d="m 332.31644,311.4634 15.7689,12.2944 17.6398,-39.28862 59.6011,-23.51972 17.10526,13.89801 19.51066,-50.24667 -29.93419,-9.6217 -35.27957,24.05426 -49.1776,16.30344 -45.43581,-12.2944 3.74177,27.79603 23.78699,10.15624 z"
       id="India" />
    <path
       style="fill:#ffaaaa;stroke:#000000;stroke-width:0.264583px;stroke-linecap:butt;stroke-linejoin:miter;stroke-opacity:1"
       d="m 302.11499,243.0424 45.43581,12.2944 49.1776,-16.30344 35.27957,-24.05426 46.50489,-44.63401 -8.28535,-36.88319 -91.67344,-42.495857 -90.33711,63.877417 1.87089,70.29188 z"
       id="China" />
    <path
       style="fill:#ffaaaa;stroke:#000000;stroke-width:0.264583px;stroke-linecap:butt;stroke-linejoin:miter;stroke-opacity:1"
       d="m 470.2275,133.4619 -36.8668,-17.24282 28.72621,-17.386908 49.89285,-7.559521 12.85118,29.482139 z"
       id="Kamtchatka" />
    <path
       style="fill:#ffaaaa;stroke:#000000;stroke-width:0.264583px;stroke-linecap:butt;stroke-linejoin:miter;stroke-opacity:1"
       d="m 254.19999,101.85598 -15.875,19.65476 12.09524,18.14286 -15.875,12.85119 -15.11905,-18.14285 7.55953,-30.2381 21.92262,-16.630953 z"
       id="Tartaria" />
    <path
       style="fill:#ffaaaa;stroke:#000000;stroke-width:0.264583px;stroke-linecap:butt;stroke-linejoin:miter;stroke-opacity:1"
       d="m 254.19999,101.85598 20.41072,17.38691 -6.80357,41.57738 -33.26191,-8.31548 15.875,-12.85119 -12.09524,-18.14286 z"
       id="Taymir" />
    <path
       style="fill:#ffaaaa;stroke:#000000;stroke-width:0.264583px;stroke-linecap:butt;stroke-linejoin:miter;stroke-opacity:1"
       d="m 240.59285,262.87384 46.86905,8.31548 13.60713,15.87499 -10.58333,15.875 -55.18452,8.31548 -18.8988,-20.41071 z"
       id="Israel" />
    <path
       style="fill:#ffaaaa;stroke:#000000;stroke-width:0.264583px;stroke-linecap:butt;stroke-linejoin:miter;stroke-opacity:1"
       d="m 235.30118,311.25479 13.60715,46.1131 41.57737,-54.42858 z"
       id="Arabia" />
  </g>
</svg>
